# xmcd
#
# Track frame offsets:
#	150
#	11675
#	23987
#	35680
#	45827
#	57099
#	66721
#	77046
#	86680
#	96837
#	109211
#	121406
#	129496
#	140226
#	151121
#	165751
#	175982
#	185302
#	198098
#	212016
#
# Disc length: 2968 seconds
#
# Revision: 1
# Processed by: cddbd v1.5.2PL0 Copyright (c) Steve Scherf et al.
# Submitted via: audiograbber 1.83.01
#
DISCID=0c0b9614
DTITLE=Various Artist - 20 Golden Country Songs
DYEAR=1900
DGENRE=Country
TTITLE0=Roger Miller - Little Green Apples
TTITLE1=Charlie Rich - My Heart Cries For You
TTITLE2=Johnny Cash - I Walk The Line
TTITLE3=Glen Campbell  - Walk Right In
TTITLE4=Patsy Cline - Walking After Midnight
TTITLE5=Buck Owens - Rhythm And Booze
TTITLE6=Conway Twitty - Born To Sin The Blues 
TTITLE7=Jerry Lee Lewis - Movin' On Down The Line
TTITLE8=Carl Perkins - Blue Suède Shoes
TTITLE9=Bj. Thomas - Raindrops Keep Falling On My Head
TTITLE10=Johnny Cash - Folsom Prison Blues
TTITLE11=Roger Miller - Dear Heart
TTITLE12=Glen Campbell - Redwing
TTITLE13=Patsy Cline - Just Out Of Reach 
TTITLE14=George Jones - Cold, Cold Heart
TTITLE15=Dave Dudley - Seven Lonely Days
TTITLE16=Jeannie C. Riley - The Girl Most Likely 
TTITLE17=Faron Young - I'm A Free Man Now
TTITLE18=Jimmy Dean - Release Me 
TTITLE19=Carl Belew - Am I That Easy To Forget 
EXTD=
EXTT0=
EXTT1=
EXTT2=
EXTT3=
EXTT4=
EXTT5=
EXTT6=
EXTT7=
EXTT8=
EXTT9=
EXTT10=
EXTT11=
EXTT12=
EXTT13=
EXTT14=
EXTT15=
EXTT16=
EXTT17=
EXTT18=
EXTT19=
PLAYORDER=
